<svg width="16" height="12" viewBox="0 0 16 12" fill="none" xmlns="http://www.w3.org/2000/svg">
    <path fill-rule="evenodd" clip-rule="evenodd" d="M4.61598 3.42857C4.61598 1.50494 6.0984 0 8.37108 0C10.6375 0 12.1262 1.64707 12.1262 3.6C12.1262 6.4111 10.4534 7.71429 8.37108 7.71429C6.26904 7.71429 4.61598 6.36632 4.61598 3.42857ZM6.49354 3.42857C6.49354 5.37365 7.26165 6 8.37109 6C9.47669 6 10.2486 5.39862 10.2486 3.6C10.2486 2.52893 9.51231 1.71429 8.37109 1.71429C7.18235 1.71429 6.49354 2.41356 6.49354 3.42857ZM0.883789 10.7791C1.35395 11.2309 1.87264 11.6402 2.43224 12H2.73843V11.1429C2.73843 10.1161 4.75135 9.42857 8.37108 9.42857C11.9908 9.42857 14.0037 10.1161 14.0037 11.1429V12H14.3099C14.8695 11.6402 15.3882 11.2309 15.8584 10.7791C15.5774 8.60989 12.7312 7.71429 8.37108 7.71429C4.01099 7.71429 1.16475 8.60989 0.883789 10.7791Z" fill="black"/>
    </svg>
    